<svg preserveAspectRatio="none" width="100%" height="100%" overflow="visible" style="display: block;" viewBox="0 0 16 16" fill="none" xmlns="http://www.w3.org/2000/svg">
<g id="SVG">
<path id="Vector" d="M13.2263 7.68229C13.2821 7.71448 13.3284 7.76079 13.3606 7.81657C13.3928 7.87234 13.4097 7.9356 13.4097 8C13.4097 8.0644 13.3928 8.12766 13.3606 8.18343C13.3284 8.23921 13.2821 8.28552 13.2263 8.31771L3.29486 14.0457C3.23882 14.0781 3.17524 14.0951 3.11053 14.095C3.04582 14.095 2.98227 14.0778 2.92629 14.0454C2.87031 14.0129 2.82387 13.9663 2.79167 13.9102C2.75946 13.854 2.74263 13.7904 2.74286 13.7257V2.27429C2.74286 1.99086 3.04914 1.81371 3.29486 1.95543L13.2263 7.68229Z" fill="var(--fill-0, white)" stroke="var(--stroke-0, white)" stroke-width="1.71429"/>
</g>
</svg>
